<svg width="64" height="64" viewBox="0 0 64 64" fill="none" xmlns="http://www.w3.org/2000/svg">
<path d="M24.063 17.752L19.921 21.895L17.799 19.773C17.408 19.382 16.776 19.382 16.385 19.773C15.994 20.164 15.994 20.796 16.385 21.187L19.214 24.016C19.402 24.204 19.655 24.309 19.921 24.309C20.187 24.309 20.441 24.204 20.628 24.016L25.477 19.166C25.868 18.775 25.868 18.142 25.477 17.752C25.086 17.361 24.454 17.361 24.063 17.752Z" fill="white"/>
<path d="M46.9051 19.884H29.6641C29.1111 19.884 28.6641 20.332 28.6641 20.884C28.6641 21.436 29.1111 21.884 29.6641 21.884H46.9051C47.4581 21.884 47.9051 21.436 47.9051 20.884C47.9051 20.332 47.4581 19.884 46.9051 19.884Z" fill="white"/>
<path d="M24.063 28.868L19.921 33.011L17.799 30.889C17.408 30.498 16.776 30.498 16.385 30.889C15.994 31.28 15.994 31.912 16.385 32.303L19.214 35.132C19.402 35.32 19.655 35.425 19.921 35.425C20.187 35.425 20.441 35.32 20.628 35.132L25.477 30.282C25.868 29.891 25.868 29.258 25.477 28.868C25.086 28.477 24.454 28.477 24.063 28.868Z" fill="white"/>
<path d="M46.9051 31H29.6641C29.1111 31 28.6641 31.448 28.6641 32C28.6641 32.552 29.1111 33 29.6641 33H46.9051C47.4581 33 47.9051 32.552 47.9051 32C47.9051 31.448 47.4581 31 46.9051 31Z" fill="white"/>
<path d="M24.063 39.984L19.921 44.127L17.799 42.005C17.408 41.614 16.776 41.614 16.385 42.005C15.994 42.396 15.994 43.028 16.385 43.419L19.214 46.248C19.402 46.436 19.655 46.541 19.921 46.541C20.187 46.541 20.441 46.436 20.628 46.248L25.477 41.398C25.868 41.007 25.868 40.374 25.477 39.984C25.086 39.593 24.454 39.593 24.063 39.984Z" fill="white"/>
<path d="M46.9051 42.116H29.6641C29.1111 42.116 28.6641 42.564 28.6641 43.116C28.6641 43.668 29.1111 44.116 29.6641 44.116H46.9051C47.4581 44.116 47.9051 43.668 47.9051 43.116C47.9051 42.564 47.4581 42.116 46.9051 42.116Z" fill="white"/>
<path d="M8.34961 62H55.6526C56.2056 62 56.6526 61.552 56.6526 61V12.31C56.6526 12.18 56.6266 12.05 56.5756 11.928C56.5246 11.805 56.4516 11.695 56.3586 11.602L47.0496 2.29302C46.9576 2.20002 46.8466 2.12702 46.7236 2.07602C46.6016 2.02502 46.4716 1.99902 46.3416 1.99902H8.34961C7.79661 1.99902 7.34961 2.44702 7.34961 2.99902V60.999C7.34961 61.551 7.79661 62 8.34961 62ZM47.3416 5.41402L53.2376 11.31H47.3416V5.41402ZM9.34961 4.00002H45.3416V12.31C45.3416 12.862 45.7886 13.31 46.3416 13.31H54.6526V60H9.34961V4.00002Z" fill="white"/>
</svg>
