<svg width="59" height="59" viewBox="0 0 59 59" fill="none" xmlns="http://www.w3.org/2000/svg">
<g clip-path="url(#clip0_649_2588)">
<path d="M38.5938 47.9681L38.595 48.4834C38.5956 48.7423 38.7597 48.9727 39.0042 49.0577L43.0996 50.4837C43.3442 50.5689 43.6158 50.4903 43.7771 50.2877L45.4263 48.2167C45.4872 48.1402 45.5785 48.095 45.6762 48.0909C46.6727 48.0487 47.6663 47.8625 48.6236 47.5303C48.7159 47.4982 48.8173 47.5068 48.9019 47.5553L51.1954 48.8722C51.42 49.0011 51.7014 48.9742 51.8974 48.805L55.1801 45.9713C55.3761 45.8021 55.4439 45.5275 55.3492 45.2865L54.3813 42.8253C54.3456 42.7343 54.3521 42.6328 54.3972 42.5463C54.8657 41.6478 55.1949 40.692 55.3821 39.7123C55.4005 39.6163 55.4585 39.5327 55.5431 39.4836L57.8327 38.1543C58.0566 38.0244 58.174 37.767 58.1255 37.5127L57.3128 33.253C57.2643 32.9986 57.0604 32.8026 56.8044 32.7643L54.1873 32.3715C54.0908 32.357 54.0061 32.3009 53.9537 32.2186C53.6876 31.8012 53.3887 31.3976 53.0557 31.0118C52.7226 30.626 52.367 30.2713 51.9929 29.9471C51.9191 29.8833 51.8759 29.7913 51.8757 29.6937L51.8693 27.0474C51.8687 26.7884 51.7047 26.5581 51.4601 26.473L47.3647 25.047C47.1202 24.9619 46.8486 25.0404 46.6872 25.243M43.6464 32.8564C45.5593 32.2395 47.7402 32.7783 49.1362 34.3954C50.9975 36.5516 50.7585 39.8083 48.6022 41.6697C46.4459 43.5311 43.1893 43.292 41.3279 41.1357C41.1182 40.8927 40.9351 40.6357 40.7784 40.3683" stroke="white" stroke-width="1.72852" stroke-miterlimit="10" stroke-linecap="round" stroke-linejoin="round"/>
<path d="M37.9831 9.5373C35.8752 8.50088 33.4996 7.92574 30.9881 7.94326C30.2241 7.94868 29.4729 8.00952 28.7383 8.12199" stroke="white" stroke-width="1.72852" stroke-miterlimit="10" stroke-linecap="round" stroke-linejoin="round"/>
<path d="M28.8086 43.8515H34.9419C38.6047 43.8515 41.5725 40.8812 41.5725 37.2185C41.5725 35.8187 41.8877 34.9268 42.7261 33.993C45.2092 31.2275 46.72 27.5715 46.72 23.5623C46.72 18.6566 44.4585 14.2791 40.921 11.4155" stroke="white" stroke-width="1.72852" stroke-miterlimit="10" stroke-linecap="round" stroke-linejoin="round"/>
<path d="M28.8535 48.7097L36.8879 48.6744C38.2196 48.6744 39.2993 47.5947 39.2993 46.263C39.2993 44.9312 38.2196 43.8516 36.8879 43.8516H34.0764" stroke="white" stroke-width="1.72852" stroke-miterlimit="10" stroke-linecap="round" stroke-linejoin="round"/>
<path d="M35.9559 48.6743V50.2315C35.9559 51.8353 34.6557 53.1354 33.052 53.1354H29.1504" stroke="white" stroke-width="1.72852" stroke-miterlimit="10" stroke-linecap="round" stroke-linejoin="round"/>
<path d="M15.1248 53.2339C15.6361 53.4096 16.1842 53.5063 16.7552 53.5063C17.3032 53.5063 17.8302 53.4172 18.3238 53.2548C18.4951 55.9789 20.7576 58.1357 23.5249 58.1357C26.4038 58.1357 28.7377 55.8019 28.7377 52.923V6.077C28.7377 3.1981 26.4038 0.864258 23.5249 0.864258C20.7969 0.864258 18.5597 2.96026 18.3326 5.62966C17.9606 5.54174 17.5732 5.49368 17.1743 5.49368C14.4038 5.49368 12.1578 7.7396 12.1578 10.5101C12.1578 10.6959 12.1686 10.879 12.1883 11.0596C11.786 10.9557 11.3641 10.9001 10.9293 10.9001C8.15879 10.9001 5.91287 13.1461 5.91287 15.9165C5.91287 16.557 6.03421 17.1687 6.25292 17.7318C4.80016 17.9335 3.41171 18.6428 2.37898 19.8412C0.125337 22.4569 0.418493 26.4043 3.03408 28.6582C3.20947 28.8094 3.39131 28.9481 3.57776 29.0765C3.15231 29.3717 2.75671 29.7249 2.40294 30.1354C0.149075 32.751 0.442231 36.6983 3.05782 38.9523C4.11014 39.8591 5.37807 40.3529 6.66443 40.4497C6.45055 41.0073 6.33221 41.6122 6.33221 42.245C6.33221 45.0155 8.57812 47.2614 11.3486 47.2614C11.5343 47.2614 11.7176 47.2506 11.8981 47.2309C11.7942 47.6333 11.7387 48.055 11.7387 48.4899C11.7387 49.4501 12.0088 50.3468 12.4765 51.1093" stroke="white" stroke-width="1.72852" stroke-miterlimit="10" stroke-linecap="round" stroke-linejoin="round"/>
<path d="M18.334 5.62964C18.334 8.18162 19.8477 9.60857 20.6273 10.2558" stroke="white" stroke-width="1.72852" stroke-miterlimit="10" stroke-linecap="round" stroke-linejoin="round"/>
<path d="M6.33008 17.699C6.58751 17.6667 6.84967 17.6501 7.11586 17.6501C9.18005 17.6501 11.0107 18.6506 12.1491 20.1931" stroke="white" stroke-width="1.72852" stroke-miterlimit="10" stroke-linecap="round" stroke-linejoin="round"/>
<path d="M11.7461 48.7095C11.7461 46.1575 13.2598 44.7304 14.0394 44.0833" stroke="white" stroke-width="1.72852" stroke-miterlimit="10" stroke-linecap="round" stroke-linejoin="round"/>
<path d="M34.3785 29.4999H11.0078" stroke="white" stroke-width="1.72852" stroke-miterlimit="10" stroke-linecap="round" stroke-linejoin="round"/>
<path d="M36.6055 26.2086H24.581C24.2754 26.2086 23.9822 26.0871 23.7662 25.871L20.7898 22.8947C20.5737 22.6786 20.2806 22.5571 19.975 22.5571H16.4023" stroke="white" stroke-width="1.72852" stroke-miterlimit="10" stroke-linecap="round" stroke-linejoin="round"/>
<path d="M32.7713 32.7911H24.581C24.2754 32.7911 23.9822 32.9126 23.7662 33.1287L20.7898 36.105C20.5737 36.3211 20.2806 36.4426 19.975 36.4426H16.4023" stroke="white" stroke-width="1.72852" stroke-miterlimit="10" stroke-linecap="round" stroke-linejoin="round"/>
<path d="M52.8491 18.4108L49.9902 18.9914" stroke="white" stroke-width="1.72852" stroke-miterlimit="10" stroke-linecap="round" stroke-linejoin="round"/>
<path d="M47.6875 8.36572L45.502 10.2981" stroke="white" stroke-width="1.72852" stroke-miterlimit="10" stroke-linecap="round" stroke-linejoin="round"/>
<path d="M38.1942 2.24707L37.2676 5.01327" stroke="white" stroke-width="1.72852" stroke-miterlimit="10" stroke-linecap="round" stroke-linejoin="round"/>
</g>
<defs>
<clipPath id="clip0_649_2588">
<rect width="59" height="59" fill="white"/>
</clipPath>
</defs>
</svg>
