<svg width="55" height="55" viewBox="0 0 55 55" fill="none" xmlns="http://www.w3.org/2000/svg">
<path d="M5.10467 3.42782C4.6506 3.43581 4.21814 3.62319 3.90176 3.949C3.58538 4.27481 3.41079 4.7125 3.41613 5.16662V49.8508C3.41439 50.3067 3.59378 50.7445 3.91484 51.0681C4.2359 51.3916 4.67234 51.5745 5.12817 51.5764H49.8291C50.058 51.5814 50.2856 51.5407 50.4986 51.4566C50.7116 51.3725 50.9056 51.2468 51.0693 51.0867C51.233 50.9266 51.3631 50.7353 51.4519 50.5243C51.5406 50.3132 51.5864 50.0866 51.5864 49.8576C51.5864 49.6286 51.5406 49.4019 51.4519 49.1909C51.3631 48.9798 51.233 48.7886 51.0693 48.6285C50.9056 48.4684 50.7116 48.3426 50.4986 48.2585C50.2856 48.1744 50.058 48.1337 49.8291 48.1388H6.85699V5.16662C6.85971 4.93637 6.81613 4.70804 6.72886 4.49497C6.64159 4.28189 6.5124 4.08839 6.34896 3.9262C6.18551 3.76401 5.99115 3.63635 5.7774 3.55073C5.56366 3.4651 5.33489 3.42333 5.10467 3.42782ZM49.7888 14.603C49.3435 14.6172 48.921 14.8038 48.6105 15.1234L30.9732 32.7608L23.5913 24.6403C23.2846 24.3045 22.8573 24.1039 22.4031 24.0825C21.9488 24.061 21.5045 24.2205 21.1676 24.5259L10.8517 33.979C10.6851 34.1315 10.5501 34.3155 10.4545 34.5202C10.3588 34.7249 10.3045 34.9463 10.2945 35.1721C10.2845 35.3978 10.3191 35.6232 10.3962 35.8356C10.4734 36.0479 10.5916 36.243 10.7441 36.4097C10.8967 36.5763 11.0805 36.7114 11.2853 36.807C11.49 36.9026 11.7115 36.9568 11.9372 36.9668C12.1629 36.9767 12.3884 36.942 12.6007 36.8649C12.8131 36.7877 13.0081 36.6695 13.1747 36.5169L22.2217 28.2319L29.6439 36.4028C29.7999 36.5748 29.9892 36.7135 30.2003 36.8103C30.4114 36.9072 30.6399 36.9601 30.872 36.9662C31.1042 36.9722 31.3352 36.9313 31.551 36.8456C31.7669 36.76 31.9632 36.6314 32.128 36.4678L51.0342 17.5515C51.2799 17.3099 51.4473 17 51.5147 16.662C51.5821 16.324 51.5463 15.9737 51.4121 15.6563C51.2778 15.3389 51.0512 15.0692 50.7618 14.8822C50.4723 14.6952 50.1333 14.595 49.7888 14.603Z" fill="white"/>
</svg>
