<svg width="195" height="64" viewBox="0 0 195 64" fill="none" xmlns="http://www.w3.org/2000/svg">
<path d="M0 5.1251H13.8642C21.7116 5.1251 24.6333 6.32708 26.9247 8.21836C30.2483 10.967 31.9092 15.1496 31.9092 19.4466C31.9092 23.7418 30.1322 28.2674 27.4408 30.5605C24.519 33.0216 21.6544 34.2271 15.0661 34.2271H10.3691V47.5181H0V5.1251ZM10.3691 24.7169H14.7804C16.8431 24.7169 21.5401 24.7169 21.5401 19.6181C21.5401 14.6335 16.727 14.6335 14.3785 14.6335H10.3691V24.7169Z" fill="#153E90"/>
<path d="M35.9795 15.7227H44.9163V19.1017H45.0306C45.8325 17.5551 47.4934 14.6333 52.994 14.6333V24.2006C48.5828 24.3149 45.4896 25.2311 45.4896 30.0442V47.5161H35.9795V15.7227Z" fill="#153E90"/>
<path d="M72.4707 14.6914C84.0417 14.6914 89.5995 23.7998 89.5995 31.5918C89.5995 39.3821 84.0417 48.4922 72.4707 48.4922C60.8979 48.4922 55.3418 39.3821 55.3418 31.5918C55.3418 23.7998 60.8979 14.6914 72.4707 14.6914ZM72.4707 39.6107C76.5944 39.6107 80.0894 36.2317 80.0894 31.5918C80.0894 26.9502 76.5944 23.5711 72.4707 23.5711C68.3452 23.5711 64.8519 26.9502 64.8519 31.5918C64.8519 36.2317 68.3452 39.6107 72.4707 39.6107Z" fill="#153E90"/>
<path d="M95.3286 22.9397H91.7764V15.7227H95.3286V14.06C95.3286 5.12488 102.833 4.32125 107.473 4.32125H108.848V11.4829H107.76C106.957 11.4829 104.839 11.7704 104.839 14.4601V15.7227H108.848V22.9397H104.839V47.5161H95.3286V22.9397Z" fill="#153E90"/>
<path d="M143.619 37.5482C142.073 41.1005 139.839 43.8508 137.145 45.6832C134.511 47.5745 131.361 48.5479 128.094 48.5479C118.986 48.5479 111.253 41.1576 111.253 31.7064C111.253 22.8266 118.241 14.6345 127.923 14.6345C137.604 14.6345 144.709 22.3105 144.709 31.9921C144.709 33.253 144.593 33.7674 144.478 34.5121H120.647C121.22 38.2947 124.371 40.5289 128.094 40.5289C131.016 40.5289 132.563 39.2092 133.881 37.5482H143.619ZM135.199 28.0952C134.797 26.2057 132.907 22.6535 127.98 22.6535C123.053 22.6535 121.163 26.2057 120.761 28.0952H135.199Z" fill="#153E90"/>
<path d="M0 59.8364V59.8121C0 57.5104 1.7354 55.6226 4.22246 55.6226C5.75003 55.6226 6.66449 56.1335 7.41615 56.873L6.28174 58.1806C5.65824 57.6143 5.02089 57.2679 4.21207 57.2679C2.84557 57.2679 1.86356 58.4006 1.86356 59.7896V59.8121C1.86356 61.2012 2.82306 62.3564 4.21207 62.3564C5.13693 62.3564 5.70327 61.9875 6.34062 61.4073L7.47331 62.5538C6.64025 63.444 5.71539 64 4.15319 64C1.77004 64 0 62.1607 0 59.8364Z" fill="#153E90"/>
<path d="M10.5264 59.8364V59.8121C10.5264 57.5104 12.3432 55.6226 14.8406 55.6226C17.3398 55.6226 19.1341 57.4879 19.1341 59.7896V59.8121C19.1341 62.1139 17.3173 64 14.8181 64C12.3189 64 10.5264 62.1364 10.5264 59.8364ZM17.2705 59.8364V59.8121C17.2705 58.4248 16.2522 57.2679 14.8181 57.2679C13.3841 57.2679 12.3882 58.4006 12.3882 59.7896V59.8121C12.3882 61.2012 13.4066 62.3564 14.8406 62.3564C16.2764 62.3564 17.2705 61.2237 17.2705 59.8364Z" fill="#153E90"/>
<path d="M22.9355 55.7632H24.5774L28.3721 60.7495V55.7632H30.1317V63.8618H28.6163L24.6935 58.7127V63.8618H22.9355V55.7632Z" fill="#153E90"/>
<path d="M34.293 55.7632H35.9348L39.7295 60.7495V55.7632H41.4874V63.8618H39.9737L36.0509 58.7127V63.8618H34.293V55.7632Z" fill="#153E90"/>
<path d="M45.6504 55.7632H51.7589V57.3462H47.4204V58.9898H51.2394V60.5746H47.4204V62.2771H51.8161V63.8618H45.6504V55.7632Z" fill="#153E90"/>
<path d="M55.2598 59.8364V59.8121C55.2598 57.5104 56.9934 55.6226 59.4822 55.6226C61.0098 55.6226 61.9243 56.1335 62.6759 56.873L61.5415 58.1806C60.9163 57.6143 60.2807 57.2679 59.4701 57.2679C58.1053 57.2679 57.1216 58.4006 57.1216 59.7896V59.8121C57.1216 61.2012 58.0811 62.3564 59.4701 62.3564C60.3967 62.3564 60.963 61.9875 61.5987 61.4073L62.7331 62.5538C61.9 63.444 60.9734 64 59.4112 64C57.0281 64 55.2598 62.1607 55.2598 59.8364Z" fill="#153E90"/>
<path d="M68.2587 57.4061H65.7959V55.7642H72.5054V57.4061H70.0391V63.8628H68.2587V57.4061Z" fill="#153E90"/>
<path d="M76.1719 55.7645H77.954V63.8613H76.1719V55.7645Z" fill="#153E90"/>
<path d="M82.1963 55.7637H83.8399L87.6346 60.75V55.7637H89.3925V63.8623H87.877L83.9542 58.7132V63.8623H82.1963V55.7637Z" fill="#153E90"/>
<path d="M93.1973 59.8364V59.8121C93.1973 57.5104 94.9898 55.6226 97.4422 55.6226C98.9005 55.6226 99.7786 56.0174 100.624 56.7345L99.5015 58.0889C98.8763 57.5675 98.3221 57.2679 97.3851 57.2679C96.0896 57.2679 95.0591 58.4127 95.0591 59.7896V59.8121C95.0591 61.293 96.0775 62.3806 97.5115 62.3806C98.161 62.3806 98.7377 62.2196 99.1898 61.8939V60.7387H97.3955V59.199H100.913V62.7166C100.08 63.4215 98.9352 64 97.4544 64C94.9309 64 93.1973 62.2299 93.1973 59.8364Z" fill="#153E90"/>
<path d="M110.533 55.7635H114.293C115.22 55.7635 115.947 56.0163 116.411 56.4805C116.78 56.8494 116.966 57.3015 116.966 57.8557V57.8799C116.966 58.7944 116.481 59.3036 115.902 59.6257C116.839 59.986 117.418 60.5281 117.418 61.6157V61.64C117.418 63.1208 116.214 63.8604 114.387 63.8604H110.533V55.7635ZM113.912 59.0386C114.699 59.0386 115.196 58.7823 115.196 58.1813V58.157C115.196 57.6253 114.78 57.324 114.028 57.324H112.269V59.0386H113.912ZM114.387 62.2981C115.173 62.2981 115.648 62.021 115.648 61.4218V61.3975C115.648 60.852 115.242 60.5177 114.328 60.5177H112.269V62.2981H114.387Z" fill="#153E90"/>
<path d="M120.975 60.392V55.7642H122.755V60.3452C122.755 61.6632 123.415 62.3474 124.504 62.3474C125.59 62.3474 126.25 61.6875 126.25 60.4041V55.7642H128.031V60.3348C128.031 62.7856 126.655 63.9893 124.48 63.9893C122.305 63.9893 120.975 62.7752 120.975 60.392Z" fill="#153E90"/>
<path d="M131.51 62.682L132.563 61.4212C133.292 62.0222 134.056 62.4049 134.981 62.4049C135.71 62.4049 136.15 62.1157 136.15 61.6394V61.6186C136.15 61.1666 135.871 60.9345 134.518 60.5881C132.887 60.1724 131.834 59.7204 131.834 58.1114V58.0906C131.834 56.6185 133.013 55.6469 134.669 55.6469C135.848 55.6469 136.855 56.0175 137.675 56.6774L136.751 58.0214C136.034 57.5226 135.329 57.2229 134.645 57.2229C133.962 57.2229 133.604 57.5329 133.604 57.9278V57.9503C133.604 58.4821 133.952 58.6553 135.351 59.0155C136.993 59.4433 137.92 60.0339 137.92 61.4437V61.4679C137.92 63.0752 136.693 63.9775 134.946 63.9775C133.72 63.9775 132.481 63.5497 131.51 62.682Z" fill="#153E90"/>
<path d="M141.769 55.7645H143.551V63.8613H141.769V55.7645Z" fill="#153E90"/>
<path d="M147.797 55.7637H149.44L153.235 60.75V55.7637H154.993V63.8623H153.478L149.557 58.7132V63.8623H147.797V55.7637Z" fill="#153E90"/>
<path d="M159.152 55.7632H165.261V57.3462H160.922V58.9898H164.741V60.5746H160.922V62.2771H165.318V63.8618H159.152V55.7632Z" fill="#153E90"/>
<path d="M168.567 62.682L169.62 61.4212C170.35 62.0222 171.113 62.4049 172.038 62.4049C172.767 62.4049 173.207 62.1157 173.207 61.6394V61.6186C173.207 61.1666 172.93 60.9345 171.576 60.5881C169.944 60.1724 168.891 59.7204 168.891 58.1114V58.0906C168.891 56.6185 170.071 55.6469 171.726 55.6469C172.906 55.6469 173.912 56.0175 174.735 56.6774L173.808 58.0214C173.091 57.5226 172.386 57.2229 171.704 57.2229C171.022 57.2229 170.661 57.5329 170.661 57.9278V57.9503C170.661 58.4821 171.009 58.6553 172.409 59.0155C174.052 59.4433 174.977 60.0339 174.977 61.4437V61.4679C174.977 63.0752 173.751 63.9775 172.004 63.9775C170.777 63.9775 169.541 63.5497 168.567 62.682Z" fill="#153E90"/>
<path d="M178.075 62.682L179.128 61.4212C179.856 62.0222 180.621 62.4049 181.546 62.4049C182.275 62.4049 182.715 62.1157 182.715 61.6394V61.6186C182.715 61.1666 182.438 60.9345 181.084 60.5881C179.452 60.1724 178.399 59.7204 178.399 58.1114V58.0906C178.399 56.6185 179.579 55.6469 181.234 55.6469C182.414 55.6469 183.42 56.0175 184.243 56.6774L183.316 58.0214C182.599 57.5226 181.892 57.2229 181.212 57.2229C180.528 57.2229 180.169 57.5329 180.169 57.9278V57.9503C180.169 58.4821 180.517 58.6553 181.917 59.0155C183.559 59.4433 184.485 60.0339 184.485 61.4437V61.4679C184.485 63.0752 183.259 63.9775 181.511 63.9775C180.285 63.9775 179.047 63.5497 178.075 62.682Z" fill="#153E90"/>
<path d="M156.288 33.257L142.412 48.3804H154.361L162.089 39.9596L156.288 33.257Z" fill="#153E90"/>
<path d="M164.846 39.8807L172.648 48.3828H184.597L170.774 33.3166L164.846 39.8807Z" fill="#153E90"/>
<path d="M163.528 25.401L154.312 14.753H142.945L163.528 38.5361L194.219 0.000217438L163.528 25.401Z" fill="#00AEEF"/>
</svg>
