<svg width="56" height="56" viewBox="0 0 56 56" fill="none" xmlns="http://www.w3.org/2000/svg">
<g clip-path="url(#clip0_649_2575)">
<path d="M26.3343 12.374C26.3347 11.3736 26.0383 10.3956 25.4827 9.56367C24.9271 8.73176 24.1373 8.08333 23.2131 7.70041C22.2889 7.3175 21.2719 7.21731 20.2907 7.41252C19.3096 7.60773 18.4084 8.08957 17.7011 8.79707C16.9939 9.50458 16.5124 10.406 16.3176 11.3872C16.1227 12.3684 16.2233 13.3854 16.6065 14.3094C16.9898 15.2335 17.6385 16.0231 18.4706 16.5784C19.3027 17.1337 20.2809 17.4296 21.2812 17.4289C22.621 17.4264 23.9051 16.893 24.8522 15.9455C25.7994 14.998 26.3323 13.7137 26.3343 12.374ZM19.0226 12.374C19.0222 11.9276 19.1542 11.4912 19.4019 11.1199C19.6495 10.7485 20.0018 10.459 20.414 10.2878C20.8262 10.1167 21.28 10.0716 21.7178 10.1583C22.1557 10.245 22.558 10.4596 22.8738 10.775C23.1897 11.0903 23.405 11.4923 23.4924 11.93C23.5799 12.3677 23.5356 12.8215 23.3651 13.234C23.1946 13.6465 22.9057 13.9992 22.5347 14.2475C22.1638 14.4958 21.7276 14.6285 21.2812 14.6289C20.6828 14.6289 20.1089 14.3915 19.6854 13.9687C19.262 13.5459 19.0236 12.9724 19.0226 12.374Z" fill="white"/>
<path d="M0.589844 46.6667C0.592807 49.0174 1.52792 51.2709 3.1901 52.9331C4.85228 54.5953 7.10583 55.5304 9.45651 55.5334H46.5434C48.8941 55.5304 51.1477 54.5953 52.8099 52.9331C54.472 51.2709 55.4071 49.0174 55.4101 46.6667V23.4398C55.4071 21.0891 54.472 18.8356 52.8099 17.1734C51.1477 15.5112 48.8941 14.5761 46.5434 14.5731H32.8533C33.0608 13.8579 33.1744 13.1187 33.1912 12.3742C33.2109 10.798 32.9175 9.23368 32.328 7.77181C31.7385 6.30994 30.8646 4.97966 29.757 3.85812C28.6495 2.73658 27.3302 1.84611 25.8758 1.23835C24.4215 0.630584 22.8609 0.317627 21.2846 0.317627C19.7084 0.317627 18.1478 0.630584 16.6934 1.23835C15.2391 1.84611 13.9198 2.73658 12.8122 3.85812C11.7047 4.97966 10.8308 6.30994 10.2413 7.77181C9.65177 9.23368 9.35838 10.798 9.37811 12.3742C9.39186 13.1183 9.5023 13.8575 9.70664 14.5731H9.45651C7.10583 14.5761 4.85228 15.5112 3.1901 17.1734C1.52792 18.8356 0.592807 21.0891 0.589844 23.4398V46.6667ZM3.38984 46.6667V38.4534H15.7994V52.7334H9.45278C7.84505 52.7304 6.30408 52.0902 5.16759 50.953C4.0311 49.8158 3.39182 48.2744 3.38984 46.6667ZM22.6781 33.3144V30.2176H52.6101V44.1896H18.5994V38.3358C19.7517 38.0928 20.7856 37.4615 21.528 36.5474C22.2705 35.6334 22.6765 34.492 22.6781 33.3144ZM46.5434 52.7278H18.5994V46.9896H52.5728C52.4922 48.5362 51.8224 49.9932 50.7011 51.0614C49.5798 52.1295 48.0921 52.7278 46.5434 52.7334V52.7278ZM46.5434 17.3675C48.1518 17.3695 49.6938 18.0093 50.831 19.1466C51.9683 20.2839 52.6081 21.8258 52.6101 23.4342V27.412H25.2784C27.8087 24.3092 29.9955 20.9414 31.8005 17.3675H46.5434ZM21.28 3.26671C23.6943 3.26968 26.009 4.23022 27.716 5.93761C29.423 7.64501 30.3831 9.95981 30.3856 12.3742C30.3856 15.0995 27.2365 20.6006 21.9632 27.0872C21.8814 27.1903 21.7774 27.2735 21.6589 27.3307C21.5404 27.3879 21.4106 27.4176 21.279 27.4176C21.1475 27.4176 21.0177 27.3879 20.8992 27.3307C20.7807 27.2735 20.6767 27.1903 20.5949 27.0872C15.3197 20.6006 12.1706 15.0995 12.1706 12.3742C12.1731 9.95916 13.1337 7.6438 14.8415 5.9363C16.5494 4.2288 18.865 3.26869 21.28 3.26671ZM9.45651 17.3731H10.7632C12.8704 21.4808 15.4427 25.3328 18.4296 28.8531C18.8186 29.3263 19.3197 29.6946 19.8874 29.9246V33.3144C19.8877 33.6218 19.8273 33.9262 19.7097 34.2102C19.5922 34.4942 19.4197 34.7523 19.2023 34.9695C18.9848 35.1868 18.7267 35.359 18.4426 35.4764C18.1585 35.5937 17.854 35.6539 17.5466 35.6534H3.38984V23.4454C3.39034 21.836 4.02948 20.2927 5.16693 19.1542C6.30439 18.0157 7.84717 17.3751 9.45651 17.3731Z" fill="white"/>
</g>
<defs>
<clipPath id="clip0_649_2575">
<rect width="56" height="56" fill="white"/>
</clipPath>
</defs>
</svg>
