<svg width="36" height="64" viewBox="0 0 36 64" fill="none" xmlns="http://www.w3.org/2000/svg">
<g clip-path="url(#clip0_621_1423)">
<path d="M30.73 0H4.873C2.186 0 0 2.186 0 4.873V43.097V61.833C0 62.339 0.255 62.811 0.679 63.088C1.102 63.365 1.638 63.411 2.1 63.208L17.802 56.351L33.503 63.208C33.695 63.292 33.899 63.333 34.104 63.333C34.391 63.333 34.677 63.25 34.925 63.088C35.349 62.811 35.604 62.339 35.604 61.833V43.096V4.873C35.604 2.186 33.417 0 30.73 0ZM4.873 3H30.73C31.763 3 32.603 3.84 32.603 4.873V41.597H3V4.873C3 3.84 3.84 3 4.873 3ZM32.604 59.541L18.402 53.339C18.211 53.256 18.006 53.214 17.802 53.214C17.598 53.214 17.393 53.256 17.202 53.339L3 59.541V44.596H32.604V59.541Z" fill="white"/>
<path d="M14.5313 29.3921C14.5383 29.3981 14.5483 29.4001 14.5543 29.4071C14.5693 29.4211 14.5813 29.4371 14.5963 29.4501C14.6823 29.5211 14.7823 29.5611 14.8773 29.6101C14.9313 29.6371 14.9783 29.6781 15.0333 29.6991C15.2013 29.7611 15.3763 29.7951 15.5523 29.7951C15.6563 29.7951 15.7603 29.7831 15.8633 29.7611C15.8963 29.7541 15.9273 29.7401 15.9603 29.7311C16.0283 29.7121 16.0963 29.6931 16.1613 29.6641C16.2003 29.6461 16.2353 29.6221 16.2733 29.6011C16.3293 29.5711 16.3843 29.5411 16.4363 29.5031C16.4733 29.4761 16.5063 29.4431 16.5413 29.4121C16.5783 29.3801 16.6173 29.3531 16.6513 29.3161C16.6583 29.3091 16.6603 29.2981 16.6673 29.2911C16.6803 29.2761 16.6963 29.2661 16.7093 29.2501L26.6403 17.2581C27.1683 16.6201 27.0793 15.6751 26.4423 15.1461C25.8023 14.6161 24.8583 14.7061 24.3303 15.3451L15.4133 26.1121L11.1433 22.1351C10.5363 21.5701 9.58628 21.6041 9.02328 22.2101C8.45928 22.8161 8.49228 23.7661 9.09828 24.3301L14.5313 29.3921Z" fill="white"/>
</g>
<defs>
<clipPath id="clip0_621_1423">
<rect width="35.604" height="63.333" fill="white"/>
</clipPath>
</defs>
</svg>
