<svg width="54" height="54" viewBox="0 0 54 54" fill="none" xmlns="http://www.w3.org/2000/svg">
<g clip-path="url(#clip0_644_1692)">
<path d="M52.7419 9.01627C51.0008 6.92808 47.6836 6.42354 43.2246 7.51008C38.635 3.45232 32.6078 0.985474 26.0145 0.985474C11.6701 0.985474 0 12.6555 0 27C0 31.8173 1.31771 36.332 3.6094 40.2055C1.50248 44.6475 1.31636 48.1995 3.13119 50.3763C4.281 51.7552 6.0798 52.454 8.47898 52.454C8.50986 52.454 8.54091 52.4538 8.57196 52.4537C9.27089 52.4484 9.83331 51.8776 9.82808 51.1786C9.82284 50.4829 9.25722 49.9225 8.56268 49.9225C8.55947 49.9225 8.55626 49.9225 8.55306 49.9225C6.89921 49.9359 5.73117 49.5422 5.0751 48.7553C4.09994 47.5858 4.19258 45.4483 5.27928 42.6912C10.0338 48.9587 17.5588 53.0146 26.0144 53.0146C40.3588 53.0146 52.0289 41.3445 52.0289 27C52.0289 20.3392 49.5114 14.2561 45.3796 9.64906C47.9796 9.2326 49.897 9.55675 50.7978 10.637C51.4807 11.4561 51.6435 12.7426 51.2816 14.4606C51.1374 15.1447 51.5752 15.8158 52.2591 15.9599C52.9438 16.105 53.6144 15.6664 53.7584 14.9823C54.2879 12.4679 53.946 10.4604 52.7419 9.01627ZM46.0421 14.7503C48.0255 17.9811 49.2496 21.7258 49.4635 25.7344H37.4268C37.3483 21.8478 36.907 18.1176 36.1462 14.7662H45.8512C45.9162 14.7662 45.9797 14.7598 46.0421 14.7503ZM46.1238 39.1162C46.0359 39.0968 45.9449 39.086 45.8511 39.086H36.1806C36.9209 35.7731 37.3495 32.0947 37.4268 28.2656H49.4635C49.2524 32.2191 48.0592 35.9159 46.1238 39.1162ZM26.0145 50.4834C23.8794 50.4834 21.6878 48.1274 20.0016 44.0196C19.6901 43.2609 19.4042 42.456 19.1406 41.6172H32.8884C32.6249 42.456 32.339 43.2609 32.0275 44.0196C30.3413 48.1274 28.1495 50.4834 26.0145 50.4834ZM18.4451 39.086C17.667 35.8175 17.2151 32.1301 17.1343 28.2656H34.8945C34.8136 32.1301 34.3619 35.8175 33.5837 39.086H18.4451ZM5.98749 14.7495C6.05162 14.7594 6.11692 14.7662 6.18374 14.7662H15.8829C15.1225 18.115 14.6815 21.8421 14.6025 25.7255C14.5994 25.7285 14.5964 25.7316 14.5934 25.7344H2.56539C2.77953 21.7253 4.00376 17.9804 5.98749 14.7495ZM26.0145 3.51661C28.1496 3.51661 30.3413 5.8726 32.0275 9.98047C32.2789 10.5928 32.5135 11.2351 32.7339 11.9003C32.5369 12.0103 32.3397 12.122 32.1421 12.235H19.1879C19.4386 11.4499 19.7085 10.6942 20.0016 9.98047C21.6876 5.8726 23.8794 3.51661 26.0145 3.51661ZM33.5494 14.7662C34.3492 18.0708 34.8124 21.812 34.8945 25.7344H18.2455C19.4054 24.6547 20.6333 23.5708 21.9291 22.4905C25.535 19.4844 29.2416 16.8626 32.8188 14.7662H33.5494ZM28.0469 14.7662C25.4641 16.4781 22.8591 18.42 20.3083 20.5465C19.2554 21.4243 18.2321 22.3171 17.2416 23.2198C17.4333 20.2155 17.8526 17.3567 18.4795 14.7662H28.0469ZM15.8483 39.086H7.06897C8.79352 36.1428 11.3334 32.794 14.6339 29.3094C14.7619 32.7626 15.1755 36.0755 15.8483 39.086ZM34.369 9.01914C33.5718 7.07725 32.6566 5.46238 31.6521 4.20221C34.8465 4.99244 37.785 6.43788 40.3167 8.38787C40.0529 8.48153 39.7871 8.57822 39.5173 8.68115C38.0594 9.23732 36.5463 9.9128 34.9971 10.6951C34.7984 10.119 34.5902 9.55794 34.369 9.01914ZM20.3769 4.20238C19.3723 5.46255 18.4571 7.07742 17.6599 9.01931C17.2468 10.0257 16.8749 11.1034 16.541 12.2352H7.76807C10.9394 8.32341 15.3401 5.44821 20.3769 4.20238ZM2.56556 28.2656H12.1479C9.3237 31.3213 6.94933 34.3923 5.1809 37.307C5.1318 37.3878 5.0854 37.4676 5.03747 37.548C3.6148 34.7299 2.74291 31.5886 2.56556 28.2656ZM7.64893 41.6172H16.4981C16.8427 42.8031 17.229 43.9308 17.6599 44.9809C18.4571 46.9228 19.3723 48.5376 20.3769 49.7978C15.2768 48.5361 10.8287 45.6041 7.64893 41.6172ZM31.6521 49.7976C32.6566 48.5375 33.5718 46.9226 34.369 44.9807C34.8 43.9308 35.186 42.8029 35.5308 41.617H44.38C41.2002 45.6041 36.7521 48.5361 31.6521 49.7976ZM44.2608 12.235H37.6191C38.5725 11.7918 39.5079 11.394 40.4194 11.0462C41.1496 10.7678 41.8537 10.5274 42.5302 10.3225C43.1411 10.9278 43.7187 11.5663 44.2608 12.235Z" fill="white"/>
</g>
<defs>
<clipPath id="clip0_644_1692">
<rect width="54" height="54" fill="white"/>
</clipPath>
</defs>
</svg>
