<svg width="64" height="54" viewBox="0 0 64 54" fill="none" xmlns="http://www.w3.org/2000/svg">
<path d="M15.8496 53.6253C15.2596 53.6253 14.7696 53.1453 14.7696 52.5453V43.8553H9.25961V52.5453C9.25961 53.1353 8.77961 53.6253 8.17961 53.6253C7.58961 53.6253 7.09961 53.1453 7.09961 52.5453V42.7753C7.09961 42.1853 7.57961 41.6953 8.17961 41.6953H15.8396C16.4296 41.6953 16.9196 42.1753 16.9196 42.7753V52.5453C16.9196 53.1453 16.4396 53.6253 15.8496 53.6253Z" fill="white"/>
<path d="M29.7695 53.6254C29.1795 53.6254 28.6895 53.1454 28.6895 52.5454V38.1954H23.1795V52.5554C23.1795 53.1454 22.6995 53.6354 22.0995 53.6354C21.5095 53.6354 21.0195 53.1554 21.0195 52.5554V37.1154C21.0195 36.5254 21.4995 36.0354 22.0995 36.0354H29.7595C30.3495 36.0354 30.8395 36.5154 30.8395 37.1154V52.5454C30.8495 53.1454 30.3695 53.6254 29.7695 53.6254Z" fill="white"/>
<path d="M43.9202 53.6253C43.3302 53.6253 42.8402 53.1453 42.8402 52.5453V31.8653H37.3202V52.5453C37.3202 53.1353 36.8402 53.6253 36.2402 53.6253C35.6502 53.6253 35.1602 53.1453 35.1602 52.5453V30.7953C35.1602 30.2053 35.6402 29.7153 36.2402 29.7153H43.9102C44.5002 29.7153 44.9902 30.1953 44.9902 30.7953V52.5553C45.0002 53.1453 44.5202 53.6253 43.9202 53.6253Z" fill="white"/>
<path d="M57.7991 53.6254C57.2091 53.6254 56.7191 53.1454 56.7191 52.5454V26.7654H51.1991V52.5554C51.1991 53.1454 50.7191 53.6354 50.1191 53.6354C49.5291 53.6354 49.0391 53.1554 49.0391 52.5554V25.6954C49.0391 25.1054 49.5191 24.6154 50.1191 24.6154H57.7891C58.3791 24.6154 58.8691 25.0954 58.8691 25.6954V52.5554C58.8691 53.1454 58.3891 53.6254 57.7991 53.6254Z" fill="white"/>
<path d="M62.92 53.6254H1.08C0.48 53.6254 0 53.1453 0 52.5453V3.31535C0 2.72535 0.48 2.23535 1.08 2.23535C1.67 2.23535 2.16 2.71535 2.16 3.31535V51.4753H62.93C63.52 51.4753 64.01 51.9554 64.01 52.5554C64 53.1454 63.52 53.6254 62.92 53.6254Z" fill="white"/>
<path d="M53.5091 17.2653C53.3391 17.2653 53.1591 17.2253 52.9991 17.1353C52.4791 16.8553 52.2791 16.1953 52.5691 15.6753L60.7491 0.565339C61.0291 0.0453395 61.6891 -0.15466 62.2091 0.13534C62.7291 0.41534 62.9291 1.07534 62.6391 1.59534L54.4591 16.7053C54.2591 17.0553 53.8891 17.2653 53.5091 17.2653Z" fill="white"/>
<path d="M47.5295 18.9254C47.3895 18.9254 47.2495 18.8954 47.1095 18.8354L33.1495 12.8654C32.5995 12.6354 32.3495 11.9954 32.5795 11.4554C32.8095 10.9054 33.4395 10.6554 33.9895 10.8854L47.9495 16.8554C48.4995 17.0854 48.7495 17.7254 48.5195 18.2654C48.3395 18.6754 47.9495 18.9254 47.5295 18.9254Z" fill="white"/>
<path d="M9.55964 31.9753C9.40964 31.9753 9.25964 31.9653 9.10964 31.9553C7.81964 31.8353 6.64964 31.2253 5.81964 30.2253C4.98964 29.2353 4.59964 27.9753 4.70964 26.6853C4.82964 25.3853 5.43964 24.2153 6.42964 23.3853C7.42964 22.5553 8.68964 22.1653 9.97964 22.2853C11.2696 22.4053 12.4396 23.0153 13.2696 24.0053C14.9896 26.0653 14.7096 29.1353 12.6496 30.8453C11.7796 31.5753 10.6896 31.9753 9.55964 31.9753ZM9.53964 24.4153C8.90964 24.4153 8.29964 24.6353 7.80964 25.0453C7.25964 25.5053 6.91964 26.1553 6.84964 26.8753C6.77964 27.5953 6.99964 28.2953 7.45964 28.8453C7.91964 29.4053 8.56964 29.7453 9.28964 29.8053C10.0196 29.8753 10.7096 29.6553 11.2696 29.1853C12.4196 28.2253 12.5696 26.5253 11.6096 25.3753C11.1496 24.8253 10.4996 24.4853 9.77964 24.4153C9.70964 24.4153 9.61964 24.4153 9.53964 24.4153Z" fill="white"/>
<path d="M30.139 15.1753C29.989 15.1753 29.839 15.1653 29.689 15.1553C28.399 15.0353 27.229 14.4253 26.399 13.4253C24.679 11.3653 24.959 8.29528 27.019 6.58528C28.019 5.75528 29.269 5.36528 30.569 5.48528C31.859 5.60528 33.029 6.21528 33.859 7.20528C34.689 8.20528 35.089 9.46528 34.969 10.7553C34.849 12.0453 34.239 13.2153 33.239 14.0453C32.359 14.7853 31.269 15.1753 30.139 15.1753ZM30.119 7.61528C29.489 7.61528 28.879 7.83528 28.399 8.24528C27.249 9.20528 27.099 10.9053 28.049 12.0553C28.509 12.6153 29.159 12.9553 29.879 13.0153C30.599 13.0853 31.299 12.8653 31.859 12.3953C32.419 11.9353 32.759 11.2853 32.819 10.5653C32.889 9.84528 32.669 9.14528 32.199 8.58528C31.739 8.03528 31.089 7.69528 30.369 7.62528C30.289 7.61528 30.209 7.61528 30.119 7.61528Z" fill="white"/>
<path d="M51.0907 23.9553C49.7007 23.9553 48.3207 23.3653 47.3607 22.2153C46.5307 21.2253 46.1407 19.9653 46.2507 18.6653C46.3707 17.3753 46.9807 16.1953 47.9707 15.3653C50.0307 13.6453 53.0907 13.9253 54.8107 15.9853C55.6407 16.9853 56.0407 18.2453 55.9207 19.5353C55.8007 20.8253 55.1907 21.9953 54.1907 22.8253C53.2907 23.5853 52.1907 23.9553 51.0907 23.9553ZM51.0907 16.3953C50.4807 16.3953 49.8607 16.6053 49.3607 17.0253C48.8107 17.4853 48.4607 18.1353 48.4007 18.8653C48.3307 19.5853 48.5507 20.2853 49.0107 20.8353C49.9707 21.9853 51.6807 22.1353 52.8207 21.1753C53.3807 20.7153 53.7207 20.0653 53.7807 19.3453C53.8507 18.6253 53.6307 17.9253 53.1607 17.3653C52.6307 16.7253 51.8607 16.3953 51.0907 16.3953Z" fill="white"/>
<path d="M62.6892 8.02533C62.1792 8.02533 61.7192 7.65533 61.6292 7.13533L60.8492 2.59533L56.5992 4.36533C56.0492 4.59533 55.4192 4.33533 55.1892 3.78533C54.9592 3.23533 55.2192 2.60533 55.7692 2.37533L61.2692 0.0853318C61.5692 -0.0446682 61.9192 -0.024668 62.1992 0.135332C62.4892 0.295332 62.6892 0.575332 62.7392 0.895332L63.7392 6.76533C63.8392 7.35533 63.4492 7.90533 62.8592 8.00533C62.8092 8.02533 62.7492 8.02533 62.6892 8.02533Z" fill="white"/>
<path d="M12.4797 25.7954C12.1697 25.7954 11.8597 25.6554 11.6497 25.3954C11.2697 24.9354 11.3397 24.2554 11.7997 23.8854L26.5197 11.8754C26.9797 11.4954 27.6597 11.5654 28.0297 12.0254C28.4097 12.4854 28.3397 13.1654 27.8797 13.5354L13.1597 25.5554C12.9597 25.7154 12.7197 25.7954 12.4797 25.7954Z" fill="white"/>
</svg>
