<svg width="64" height="64" viewBox="0 0 64 64" fill="none" xmlns="http://www.w3.org/2000/svg">
<path d="M5.53863 33.6001L15.1386 45.9077L22.7694 55.6308C24.1232 57.3539 26.7079 57.7231 28.554 56.3693L29.6617 55.5077C30.4002 54.8924 31.0156 54.0308 31.1386 53.0462C32.3694 53.2924 33.6002 53.0462 34.5848 52.3078L35.6925 51.4462C36.554 50.8308 37.0463 49.9693 37.1694 48.9847C38.4002 49.2308 39.6309 48.9847 40.6156 48.2462L41.7233 47.3847C42.4617 46.7693 43.0771 45.9077 43.2002 44.9231C44.554 45.1693 45.6617 44.9231 46.6463 44.1847L47.754 43.3231C48.4925 42.8308 48.8617 42.0924 49.2309 41.3539C49.4771 41.3539 49.7233 41.2308 49.8463 41.1077C50.954 40.2462 45.7848 44.4308 60.9233 32.1231C63.1386 30.277 63.5079 26.9539 61.6617 24.7385L48.3694 8.73852C47.3848 7.50775 45.9079 6.76929 44.3079 6.76929C43.0771 6.76929 41.8463 7.13852 40.9848 8.00006L37.1694 11.077L29.9079 12.5539L27.5694 9.72313C25.8463 7.50775 22.5232 7.13852 20.3079 8.86159L3.32325 22.0308C0.984785 23.7539 0.615554 27.077 2.33863 29.4154L5.53863 33.6001ZM46.154 41.3539L45.0463 42.2154C44.3079 42.8308 43.2002 42.5847 42.7079 41.9693L38.8925 36.4308C38.5233 35.8154 37.7848 35.6924 37.1694 36.1847C36.554 36.5539 36.4309 37.2924 36.8002 37.9077L40.6156 43.077C41.2309 43.8154 40.9848 44.9231 40.2463 45.5385L39.1386 46.4001C38.4002 47.0154 37.4156 46.7693 36.8002 46.1539L33.2309 40.8616C32.8617 40.2462 32.1233 40.1231 31.5079 40.4924C30.8925 40.8616 30.7694 41.6001 31.1386 42.2154L34.4617 47.0154C35.0771 47.7539 34.8309 48.8616 34.0925 49.477L32.9848 50.3385C32.2463 50.9539 31.2617 50.7078 30.6463 50.0924L27.3232 45.2924C26.954 44.677 26.2156 44.5539 25.6002 44.9231C24.9848 45.2924 24.8617 46.0308 25.2309 46.6462L28.1848 51.077C28.8002 51.8154 28.554 52.9231 27.8156 53.5385L27.0771 54.4001C26.3386 55.0154 25.354 54.8924 24.7386 54.1539L17.2309 44.3078L8.3694 32.9847L20.554 23.5077L20.0617 29.5385C19.8156 32.7385 22.5232 35.2001 25.6002 34.9539C27.5694 34.8308 29.2925 33.477 30.0309 31.6308L32.3694 25.3539L34.7079 24.4924L46.6463 39.1385C47.0156 39.877 46.8925 40.8616 46.154 41.3539ZM49.2309 38.4001C40.6156 27.8154 42.0925 29.5385 36.0617 22.277C35.6925 21.9078 35.2002 21.6616 34.7079 21.9077C31.3848 23.3847 30.6463 23.1385 30.4002 24.0001L27.8156 30.7693C27.4463 31.7539 26.5848 32.3693 25.4771 32.4924C23.8771 32.6154 22.5232 31.2616 22.6463 29.6616L23.3848 18.3385C23.5079 17.1077 24.3694 16.1231 25.4771 15.877L37.2925 13.5385L54.2771 34.4616L49.2309 38.4001ZM42.5848 9.84621C43.6925 8.86159 45.5386 9.10775 46.5233 10.2154L59.6925 26.3385C60.6771 27.5693 60.4309 29.2924 59.3233 30.277L56.1233 32.8616L47.2617 22.0308L39.3848 12.4308L42.5848 9.84621ZM4.80017 24.0001L21.7848 10.8308C23.0156 9.84621 24.7386 10.0924 25.7232 11.3231L27.2002 13.1693L24.9848 13.5385C22.7694 14.0308 21.0463 15.877 20.9232 18.2154L20.8002 20.1847L6.7694 31.1385L4.30786 27.9385C3.32325 26.7078 3.5694 24.9847 4.80017 24.0001Z" fill="white"/>
</svg>
