<svg width="64" height="64" viewBox="0 0 64 64" fill="none" xmlns="http://www.w3.org/2000/svg">
<g clip-path="url(#clip0_621_1434)">
<path d="M8.21316 64H55.7863C57.068 63.9986 58.2969 63.4887 59.2032 62.5824C60.1096 61.676 60.6194 60.4471 60.6208 59.1654V46.5113C60.6159 42.2825 58.9339 38.2284 55.9438 35.2383C52.9536 32.2481 48.8995 30.5661 44.6708 30.5613H19.3289C15.1002 30.5662 11.0461 32.2482 8.05596 35.2383C5.06582 38.2285 3.3838 42.2826 3.37891 46.5113V59.1654C3.38033 60.4471 3.8901 61.6759 4.79637 62.5823C5.70265 63.4886 6.93144 63.9985 8.21316 64ZM6.37853 46.5113C6.3825 43.0779 7.74815 39.7863 10.1759 37.3586C12.6036 34.9309 15.8952 33.5652 19.3285 33.5613H44.6703C48.1036 33.5653 51.3952 34.9309 53.8229 37.3586C56.2506 39.7864 57.6163 43.0779 57.6203 46.5113V59.1654C57.6198 59.6517 57.4264 60.1179 57.0826 60.4619C56.7388 60.8058 56.2726 60.9993 55.7863 61H49.3329V50.2146C49.3329 49.8168 49.1749 49.4353 48.8936 49.154C48.6123 48.8727 48.2307 48.7146 47.8329 48.7146C47.4351 48.7146 47.0536 48.8727 46.7722 49.154C46.4909 49.4353 46.3329 49.8168 46.3329 50.2146V61H17.6664V50.2146C17.6664 49.8168 17.5084 49.4353 17.2271 49.154C16.9458 48.8727 16.5642 48.7146 16.1664 48.7146C15.7686 48.7146 15.387 48.8727 15.1057 49.154C14.8244 49.4353 14.6664 49.8168 14.6664 50.2146V61H8.21316C7.72676 60.9994 7.26044 60.806 6.9165 60.462C6.57256 60.1181 6.37909 59.6518 6.37853 59.1654V46.5113ZM31.9997 29.4875C34.9157 29.4875 37.7663 28.6228 40.1909 27.0028C42.6155 25.3827 44.5053 23.0801 45.6212 20.386C46.7371 17.692 47.0291 14.7275 46.4603 11.8675C45.8914 9.00745 44.4872 6.38036 42.4252 4.3184C40.3633 2.25643 37.7362 0.852214 34.8762 0.283313C32.0162 -0.285588 29.0517 0.00637996 26.3576 1.1223C23.6635 2.23821 21.3609 4.12796 19.7408 6.55256C18.1207 8.97715 17.256 11.8277 17.256 14.7438C17.2604 18.6527 18.8151 22.4003 21.5792 25.1643C24.3432 27.9283 28.0907 29.4831 31.9997 29.4875ZM31.9997 3.00001C34.3224 2.99998 36.5929 3.68872 38.5242 4.97912C40.4554 6.26953 41.9607 8.10364 42.8496 10.2495C43.7384 12.3954 43.971 14.7567 43.5179 17.0348C43.0648 19.3128 41.9463 21.4054 40.3039 23.0478C38.6615 24.6902 36.569 25.8087 34.2909 26.2618C32.0129 26.715 29.6516 26.4824 27.5057 25.5936C25.3598 24.7047 23.5256 23.1995 22.2352 21.2682C20.9448 19.337 20.256 17.0665 20.256 14.7438C20.2595 11.6302 21.4979 8.64521 23.6995 6.44359C25.9011 4.24197 28.8861 3.00355 31.9997 3.00001Z" fill="white"/>
</g>
<defs>
<clipPath id="clip0_621_1434">
<rect width="64" height="64" fill="white"/>
</clipPath>
</defs>
</svg>
