<svg width="113" height="38" viewBox="0 0 113 38" fill="none" xmlns="http://www.w3.org/2000/svg">
<path d="M0 3.4826H8.005C12.536 3.4826 14.223 4.17659 15.546 5.26859C17.465 6.85559 18.424 9.2706 18.424 11.7516C18.424 14.2316 17.398 16.8446 15.844 18.1686C14.157 19.5896 12.503 20.2856 8.699 20.2856H5.987V27.9596H0V3.4826ZM5.987 14.7946H8.534C9.725 14.7946 12.437 14.7946 12.437 11.8506C12.437 8.9726 9.658 8.9726 8.302 8.9726H5.987V14.7946Z" fill="#153E90"/>
<path d="M20.7725 9.6017H25.9325V11.5527H25.9985C26.4615 10.6597 27.4205 8.9727 30.5965 8.9727V14.4967C28.0495 14.5627 26.2635 15.0917 26.2635 17.8707V27.9587H20.7725V9.6017Z" fill="#153E90"/>
<path d="M41.8431 9.00599C48.5241 9.00599 51.7331 14.265 51.7331 18.764C51.7331 23.262 48.5241 28.522 41.8431 28.522C35.1611 28.522 31.9531 23.262 31.9531 18.764C31.9531 14.265 35.1611 9.00599 41.8431 9.00599ZM41.8431 23.394C44.2241 23.394 46.2421 21.443 46.2421 18.764C46.2421 16.084 44.2241 14.133 41.8431 14.133C39.4611 14.133 37.4441 16.084 37.4441 18.764C37.4441 21.443 39.4611 23.394 41.8431 23.394Z" fill="#153E90"/>
<path d="M55.0403 13.7687H52.9893V9.6017H55.0403V8.6417C55.0403 3.4827 59.3733 3.0187 62.0523 3.0187H62.8463V7.1537H62.2183C61.7543 7.1537 60.5313 7.3197 60.5313 8.8727V9.6017H62.8463V13.7687H60.5313V27.9587H55.0403V13.7687Z" fill="#153E90"/>
<path d="M82.9243 22.2033C82.0313 24.2543 80.7413 25.8423 79.1863 26.9003C77.6653 27.9923 75.8463 28.5543 73.9603 28.5543C68.7013 28.5543 64.2363 24.2873 64.2363 18.8303C64.2363 13.7033 68.2713 8.97329 73.8613 8.97329C79.4513 8.97329 83.5533 13.4053 83.5533 18.9953C83.5533 19.7233 83.4863 20.0203 83.4203 20.4503H69.6603C69.9913 22.6343 71.8103 23.9243 73.9603 23.9243C75.6473 23.9243 76.5403 23.1623 77.3013 22.2033H82.9243ZM78.0623 16.7453C77.8303 15.6543 76.7393 13.6033 73.8943 13.6033C71.0493 13.6033 69.9583 15.6543 69.7263 16.7453H78.0623Z" fill="#153E90"/>
<path d="M0 35.0724V35.0584C0 33.7294 1.002 32.6394 2.438 32.6394C3.32 32.6394 3.848 32.9344 4.282 33.3614L3.627 34.1164C3.267 33.7894 2.899 33.5894 2.432 33.5894C1.643 33.5894 1.076 34.2434 1.076 35.0454V35.0584C1.076 35.8604 1.63 36.5274 2.432 36.5274C2.966 36.5274 3.293 36.3144 3.661 35.9794L4.315 36.6414C3.834 37.1554 3.3 37.4764 2.398 37.4764C1.022 37.4764 0 36.4144 0 35.0724Z" fill="#153E90"/>
<path d="M6.07715 35.0724V35.0584C6.07715 33.7294 7.12615 32.6394 8.56815 32.6394C10.0111 32.6394 11.0471 33.7164 11.0471 35.0454V35.0584C11.0471 36.3874 9.99815 37.4764 8.55515 37.4764C7.11215 37.4764 6.07715 36.4004 6.07715 35.0724ZM9.97115 35.0724V35.0584C9.97115 34.2574 9.38315 33.5894 8.55515 33.5894C7.72715 33.5894 7.15215 34.2434 7.15215 35.0454V35.0584C7.15215 35.8604 7.74015 36.5274 8.56815 36.5274C9.39715 36.5274 9.97115 35.8734 9.97115 35.0724Z" fill="#153E90"/>
<path d="M13.2422 32.7209H14.1902L16.3812 35.5999V32.7209H17.3972V37.3969H16.5222L14.2572 34.4239V37.3969H13.2422V32.7209Z" fill="#153E90"/>
<path d="M19.7998 32.7209H20.7478L22.9388 35.5999V32.7209H23.9538V37.3969H23.0798L20.8148 34.4239V37.3969H19.7998V32.7209Z" fill="#153E90"/>
<path d="M26.3574 32.7209H29.8844V33.6349H27.3794V34.5839H29.5844V35.4989H27.3794V36.4819H29.9174V37.3969H26.3574V32.7209Z" fill="#153E90"/>
<path d="M31.9072 35.0724V35.0584C31.9072 33.7294 32.9082 32.6394 34.3452 32.6394C35.2272 32.6394 35.7552 32.9344 36.1892 33.3614L35.5342 34.1164C35.1732 33.7894 34.8062 33.5894 34.3382 33.5894C33.5502 33.5894 32.9822 34.2434 32.9822 35.0454V35.0584C32.9822 35.8604 33.5362 36.5274 34.3382 36.5274C34.8732 36.5274 35.2002 36.3144 35.5672 35.9794L36.2222 36.6414C35.7412 37.1554 35.2062 37.4764 34.3042 37.4764C32.9282 37.4764 31.9072 36.4144 31.9072 35.0724Z" fill="#153E90"/>
<path d="M39.4122 33.6691H37.9902V32.7211H41.8642V33.6691H40.4402V37.3971H39.4122V33.6691Z" fill="#153E90"/>
<path d="M43.9795 32.7211H45.0085V37.3961H43.9795V32.7211Z" fill="#153E90"/>
<path d="M47.459 32.7209H48.408L50.599 35.5999V32.7209H51.614V37.3969H50.739L48.474 34.4239V37.3969H47.459V32.7209Z" fill="#153E90"/>
<path d="M53.8096 35.0724V35.0584C53.8096 33.7294 54.8446 32.6394 56.2606 32.6394C57.1026 32.6394 57.6096 32.8674 58.0976 33.2814L57.4496 34.0634C57.0886 33.7624 56.7686 33.5894 56.2276 33.5894C55.4796 33.5894 54.8846 34.2504 54.8846 35.0454V35.0584C54.8846 35.9134 55.4726 36.5414 56.3006 36.5414C56.6756 36.5414 57.0086 36.4484 57.2696 36.2604V35.5934H56.2336V34.7044H58.2646V36.7354C57.7836 37.1424 57.1226 37.4764 56.2676 37.4764C54.8106 37.4764 53.8096 36.4544 53.8096 35.0724Z" fill="#153E90"/>
<path d="M63.8193 32.7209H65.9903C66.5253 32.7209 66.9453 32.8669 67.2133 33.1349C67.4263 33.3479 67.5333 33.6089 67.5333 33.9289V33.9429C67.5333 34.4709 67.2533 34.7649 66.9193 34.9509C67.4603 35.1589 67.7943 35.4719 67.7943 36.0999V36.1139C67.7943 36.9689 67.0993 37.3959 66.0443 37.3959H63.8193V32.7209ZM65.7703 34.6119C66.2243 34.6119 66.5113 34.4639 66.5113 34.1169V34.1029C66.5113 33.7959 66.2713 33.6219 65.8373 33.6219H64.8213V34.6119H65.7703ZM66.0443 36.4939C66.4983 36.4939 66.7723 36.3339 66.7723 35.9879V35.9739C66.7723 35.6589 66.5383 35.4659 66.0103 35.4659H64.8213V36.4939H66.0443Z" fill="#153E90"/>
<path d="M69.8496 35.3927V32.7207H70.8776V35.3657C70.8776 36.1267 71.2586 36.5217 71.8876 36.5217C72.5146 36.5217 72.8956 36.1407 72.8956 35.3997V32.7207H73.9236V35.3597C73.9236 36.7747 73.1296 37.4697 71.8736 37.4697C70.6176 37.4697 69.8496 36.7687 69.8496 35.3927Z" fill="#153E90"/>
<path d="M75.9326 36.715L76.5406 35.987C76.9616 36.334 77.4026 36.555 77.9366 36.555C78.3576 36.555 78.6116 36.388 78.6116 36.113V36.101C78.6116 35.84 78.4506 35.706 77.6696 35.506C76.7276 35.266 76.1196 35.005 76.1196 34.076V34.064C76.1196 33.214 76.8006 32.653 77.7566 32.653C78.4376 32.653 79.0186 32.867 79.4926 33.248L78.9586 34.024C78.5446 33.736 78.1376 33.563 77.7426 33.563C77.3486 33.563 77.1416 33.742 77.1416 33.97V33.983C77.1416 34.29 77.3426 34.39 78.1506 34.598C79.0986 34.845 79.6336 35.186 79.6336 36V36.014C79.6336 36.942 78.9256 37.463 77.9166 37.463C77.2086 37.463 76.4936 37.216 75.9326 36.715Z" fill="#153E90"/>
<path d="M81.8555 32.7211H82.8845V37.3961H81.8555V32.7211Z" fill="#153E90"/>
<path d="M85.335 32.7209H86.284L88.475 35.5999V32.7209H89.49V37.3969H88.615L86.351 34.4239V37.3969H85.335V32.7209Z" fill="#153E90"/>
<path d="M91.8926 32.7209H95.4196V33.6349H92.9146V34.5839H95.1196V35.4989H92.9146V36.4819H95.4526V37.3969H91.8926V32.7209Z" fill="#153E90"/>
<path d="M97.3281 36.715L97.9361 35.987C98.3571 36.334 98.7981 36.555 99.3321 36.555C99.7531 36.555 100.007 36.388 100.007 36.113V36.101C100.007 35.84 99.8471 35.706 99.0651 35.506C98.1231 35.266 97.5151 35.005 97.5151 34.076V34.064C97.5151 33.214 98.1961 32.653 99.1521 32.653C99.8331 32.653 100.414 32.867 100.889 33.248L100.354 34.024C99.9401 33.736 99.5331 33.563 99.1391 33.563C98.7451 33.563 98.5371 33.742 98.5371 33.97V33.983C98.5371 34.29 98.7381 34.39 99.5461 34.598C100.495 34.845 101.029 35.186 101.029 36V36.014C101.029 36.942 100.321 37.463 99.3121 37.463C98.6041 37.463 97.8901 37.216 97.3281 36.715Z" fill="#153E90"/>
<path d="M102.817 36.715L103.425 35.987C103.845 36.334 104.287 36.555 104.821 36.555C105.242 36.555 105.496 36.388 105.496 36.113V36.101C105.496 35.84 105.336 35.706 104.554 35.506C103.612 35.266 103.004 35.005 103.004 34.076V34.064C103.004 33.214 103.685 32.653 104.641 32.653C105.322 32.653 105.903 32.867 106.378 33.248L105.843 34.024C105.429 33.736 105.021 33.563 104.628 33.563C104.233 33.563 104.026 33.742 104.026 33.97V33.983C104.026 34.29 104.227 34.39 105.035 34.598C105.983 34.845 106.518 35.186 106.518 36V36.014C106.518 36.942 105.81 37.463 104.801 37.463C104.093 37.463 103.378 37.216 102.817 36.715Z" fill="#153E90"/>
<path d="M90.2376 19.7257L82.2256 28.4577H89.1246L93.5866 23.5957L90.2376 19.7257Z" fill="#153E90"/>
<path d="M95.1797 23.55L99.6847 28.459H106.584L98.6027 19.76L95.1797 23.55Z" fill="#153E90"/>
<path d="M94.4192 15.1896L89.0982 9.0416H82.5352L94.4192 22.7736L112.14 0.523605L94.4192 15.1896Z" fill="#00AEEF"/>
</svg>
